<svg id="Layer_1" data-name="Layer 1" xmlns="http://www.w3.org/2000/svg" viewBox="0 0 419.3 221.1"><title>tranz</title><g id="Layer_2" data-name="Layer 2"><path d="M247.8,368.6c-6.1,6.6-11.4,9.9-15.8,9.9a8.69,8.69,0,0,1-6.4-3.1q-3-3.15-2.7-10.5c-4.7,9.1-10.1,13.6-16.1,13.6a8.27,8.27,0,0,1-7-3.4c-1.8-2.2-2.6-5.2-2.6-9,0-4.1,1.6-10.8,4.9-20.2,2.8-8,4.2-13.4,4.2-16a6.89,6.89,0,0,0-1.3-4.5,4.22,4.22,0,0,0-3.4-1.7c-2.1,0-4.2,1.3-6.2,3.8a12.6,12.6,0,0,0-3,7.9,7.9,7.9,0,0,0,2.7,6.1c.7.6,1,1.1,1,1.5q0,1.35-1.8,3.3c-1.2,1.3-2.2,1.9-3.2,1.9s-2.2-.8-3.2-2.4a9.55,9.55,0,0,1-1.5-5.2,21.47,21.47,0,0,1,5.6-14.2c3.7-4.3,7.8-6.4,12.2-6.4a10.06,10.06,0,0,1,8.4,4c2.2,2.7,3.2,6.2,3.2,10.5q0,7.65-4.8,21c-2.2,6.2-3.3,10.3-3.3,12.5a5.39,5.39,0,0,0,.9,3.3,3.09,3.09,0,0,0,2.6,1.2c2.1,0,4.1-1.4,5.9-4.2a38.52,38.52,0,0,0,4.5-8.8c1.1-3.1,2.5-7.6,4.1-13.5l3.5-12.6c1-3.3,1.8-6.1,2.5-8.2a19.18,19.18,0,0,1,1.4-3.6,1.44,1.44,0,0,1,1-.6c.5-.1,1.4-.2,2.7-.4l5.8-.6c.8,0,1.2.2,1.1.6l-1.9,6.9q-2.7,9.45-5.7,22.5c-2,8.7-3,14.2-3,16.6a7.83,7.83,0,0,0,1,4.3,3.06,3.06,0,0,0,2.7,1.6,7.1,7.1,0,0,0,4.1-1.7,65.44,65.44,0,0,0,6.8-6.7v4.5Z" transform="translate(-186.4 -195.5)"/><path d="M269.7,370.3l5.2,2.2A37,37,0,0,0,279,374a11.48,11.48,0,0,0,3.1.4c4.5,0,8.1-2.9,10.8-8.8a44.92,44.92,0,0,0,4.1-18.9c0-7.1-1.7-12.8-5.2-17.1a16.54,16.54,0,0,0-13.5-6.5,19.44,19.44,0,0,0-12.5,4.8c-3.9,3.2-5.8,6.6-5.8,10.1a5.42,5.42,0,0,0,3.4,5.5q1.5.75,1.5,1.8c0,.8-1.1,1.6-3.2,2.5a16.74,16.74,0,0,1-3.9,1.4q-2.1,0-3.6-2.4a10,10,0,0,1-1.6-5.3q0-7.65,8.1-14.7t21-6.9c8.2,0,14.8,2.3,19.7,6.8s7.4,10.6,7.4,18.3a33.14,33.14,0,0,1-4.5,16.6A34.28,34.28,0,0,1,292,374.1a31,31,0,0,1-16.3,4.6,29.82,29.82,0,0,1-13.5-3.2c-3.4,2.1-6.3,3.2-8.8,3.2a5.13,5.13,0,0,1-3.5-1.2,3.6,3.6,0,0,1-1.4-3q0-2.85,3-4.8a13.14,13.14,0,0,1,7.4-1.9,17.18,17.18,0,0,1,6,1,10.46,10.46,0,0,0,3.5-5.1,80.86,80.86,0,0,0,1.9-10.4,41.35,41.35,0,0,1,2.9-11.8,19.29,19.29,0,0,1,5.8-7.2,16.45,16.45,0,0,1,7.8-3.3l1.6,2.1a17.26,17.26,0,0,0-3.7,5.2c-.8,1.8-1.6,5.5-2.2,11.3s-1.9,10.1-3.8,13A28.79,28.79,0,0,1,269.7,370.3Z" transform="translate(-186.4 -195.5)"/><path d="M372.4,343.9l-.7,7.1a5.43,5.43,0,0,1-2.7,1.7,57.91,57.91,0,0,1-7.1,2.2c-.6,7.1-3,12.8-7.1,17.1a20.39,20.39,0,0,1-15.4,6.5c-4.3,0-7.7-.9-10.1-2.8s-3.6-3.7-3.6-5.6c0-.9.9-2.1,2.8-3.8s3.3-2.5,4.1-2.5a1.33,1.33,0,0,1,1.3.7,20.39,20.39,0,0,1,.3,3.8,8.54,8.54,0,0,0,1.5,5.1,4.79,4.79,0,0,0,4.2,2c5.4,0,8.9-5.6,10.4-16.9a30,30,0,0,0-8.5,3.5l1.7-5.5a21.94,21.94,0,0,1,7.3-4.3,34.61,34.61,0,0,1,2.2-10.3,23.65,23.65,0,0,1,5.2-7.5c3.2-.4,5.4-.6,6.5-.7a19.37,19.37,0,0,0-1.9,5.2,52.77,52.77,0,0,0-.7,9.2C365.9,346.7,369.3,345.4,372.4,343.9Zm1.8-24.7a17.35,17.35,0,0,1-3,7.9q-2.1,2.4-7.8,2.4l-12.6-.3c-3.7,0-6.7.7-9,2.2a6.8,6.8,0,0,0-3.5,6c0,2.4,1.5,4.3,4.4,5.7,1,.5,1.5.9,1.5,1.3a4.31,4.31,0,0,1-1.6,2.8,12,12,0,0,1-3.8,2.5c-3.6-1-5.5-3.3-5.5-7,0-2.6,1-5.8,3.1-9.7a27.09,27.09,0,0,1,8.2-9.5,19.24,19.24,0,0,1,11.5-3.7c.3,0,2.3.1,5.8.4s5.6.4,6.3.4c2.2,0,3.5-.4,4-1.3h2Z" transform="translate(-186.4 -195.5)"/><path d="M415.2,368.7c-4.3,4.1-7.4,6.8-9.3,8a10.09,10.09,0,0,1-5.3,1.9c-4.3,0-6.3-3.8-6-11.3a38.94,38.94,0,0,1-7.5,8.5,11.28,11.28,0,0,1-7.1,2.7,7.18,7.18,0,0,1-6-3.3,13.11,13.11,0,0,1-2.5-8.2,22.46,22.46,0,0,1,3.3-11.6,27.12,27.12,0,0,1,8.6-8.9c3.5-2.3,6.6-3.4,9.2-3.4a7.29,7.29,0,0,1,7.1,4.6l8.3-4.6h2.3l-3.6,11.8c-1.8,6-2.8,10-2.8,12.3s.8,3.5,2.5,3.5a5.68,5.68,0,0,0,3.5-1.7c1.3-1.1,3-2.8,5.3-5.1Zm-29.6,2.2c2.7,0,5.2-2.3,7.6-6.9s3.6-8.8,3.6-12.7a5.22,5.22,0,0,0-1-3.5,3.51,3.51,0,0,0-2.7-1.3c-2.7,0-5.3,2.3-7.7,6.9s-3.6,8.8-3.6,12.7a5.42,5.42,0,0,0,1.1,3.5A3.51,3.51,0,0,0,385.6,370.9Z" transform="translate(-186.4 -195.5)"/><path d="M427.6,345a55.94,55.94,0,0,1,5.6-1.2c1.9-.3,3-.5,3.4-.5s.4.1.4.3a3.45,3.45,0,0,1-.3,1.3,11.33,11.33,0,0,0-.6,3.6q0,2.1,2.4,5.7a12.48,12.48,0,0,1,2.4,6.8c0,4.1-2,8.1-5.9,11.9s-8,5.7-12.3,5.7a8.9,8.9,0,0,1-5-1.5c-1.5-1-2.3-2-2.3-3.1,0-.6.7-1.9,2.2-3.7s2.6-2.7,3.2-2.7c.9,0,1.6,1.1,2.3,3.3s1.8,3.3,3.5,3.3a6.4,6.4,0,0,0,4.6-2.3,7.31,7.31,0,0,0,2.2-4.9c0-1.7-.9-4-2.7-6.8a31.46,31.46,0,0,1-3.6-7.1,109.15,109.15,0,0,1-11.9,15.5h-.9V365C420.9,358,425.4,351.3,427.6,345Z" transform="translate(-186.4 -195.5)"/><path d="M488.5,368.7c-6.4,6.6-11.6,9.9-15.8,9.9a5.83,5.83,0,0,1-4.5-1.9,6.65,6.65,0,0,1-1.8-4.8c0-3.2,1.2-7.8,3.7-13.7,1.3-3.2,2-5.3,2-6.2,0-1.1-.5-1.7-1.6-1.7s-2.6.7-4.7,2.2a48.91,48.91,0,0,0-6.5,6,101.57,101.57,0,0,0-1.4,17.9l-9,2.1a66.32,66.32,0,0,1-.5-9.2,73.52,73.52,0,0,1,3.3-22.4,103,103,0,0,1,10.4-22c3.5-1.4,6.6-2.6,9.2-3.5a30.91,30.91,0,0,1,4.5-1.4c.7,0,1.3.6,1.8,1.7a10.24,10.24,0,0,1,.7,4.2,22,22,0,0,1-2.6,9.5,96.17,96.17,0,0,1-8.2,12.6,78.92,78.92,0,0,1,7.2-3.9,9.37,9.37,0,0,1,3.6-.8,4,4,0,0,1,3.3,1.5,5.58,5.58,0,0,1,1.3,3.9c0,2.4-1,6.2-2.9,11.3s-2.9,8.3-2.9,9.6a3,3,0,0,0,.5,1.6,1.57,1.57,0,0,0,1.3.7c1.7,0,4.9-2.6,9.5-7.8v4.6Zm-28-16.6c9.6-11.2,14.4-19.4,14.4-24.7,0-1.6-.4-2.4-1.3-2.4-1.5,0-3.6,2.7-6.3,8A75.8,75.8,0,0,0,460.5,352.1Z" transform="translate(-186.4 -195.5)"/><path d="M566,368.7a14.27,14.27,0,0,1-4,2.6,8.81,8.81,0,0,1-3.1.7,9.53,9.53,0,0,1-5.8-2.3c-3.9,5.9-8.3,8.8-13.3,8.8a9.49,9.49,0,0,1-7.6-3.5,14.36,14.36,0,0,1-2.9-9.3,21.61,21.61,0,0,1,6.6-15.8,21.33,21.33,0,0,1,15.6-6.6,12.3,12.3,0,0,1,5,.7,3.6,3.6,0,0,1,2,1.8,8.72,8.72,0,0,1,.4,2.5c0,5-1.4,11.2-4.1,18.6a6.2,6.2,0,0,0,4.3,1.9c1.8,0,4.1-1.6,7-4.7v4.6ZM552.7,346a4.16,4.16,0,0,0-1.7-.2c-3.5,0-6.2,1.8-8.2,5.5a26.71,26.71,0,0,0-3,12.9,12.32,12.32,0,0,0,1.3,6.3,4.12,4.12,0,0,0,3.6,2.3c1.9,0,4-1.8,6.2-5.3a16.41,16.41,0,0,1-3.8-10.3C547.1,352.9,549,349.2,552.7,346Z" transform="translate(-186.4 -195.5)"/><path d="M605.7,368.7c-6.2,6.6-11.6,9.9-16,9.9a5.48,5.48,0,0,1-4.4-1.9,7.65,7.65,0,0,1-1.7-5.1q0-4.35,3.6-13.2c1.3-3.2,1.9-5.2,1.9-6.1s-.3-1.3-1-1.3a2.92,2.92,0,0,0-1.5.6,19.82,19.82,0,0,0-2,1.6c-.7.6-1.4,1.4-2.3,2.3-.7.8-1.5,1.6-2.3,2.6l-2.3,2.6a9.08,9.08,0,0,0-1.9,3.8,54.28,54.28,0,0,0-.8,6.3c-.1,1.4-.1,3.4-.1,5.8l-8.9,2.1c-.3-3.6-.4-6.3-.4-8.1a48.77,48.77,0,0,1,1.5-12.3,74.93,74.93,0,0,1,4.9-13.1l9.9-1.9a99.8,99.8,0,0,0-4.1,13.2,77.37,77.37,0,0,1,10.5-10.2c2.6-1.9,4.9-2.9,6.9-2.9a4.12,4.12,0,0,1,3.4,1.6,5.64,5.64,0,0,1,1.4,3.9c0,2.6-1.2,6.8-3.5,12.8-1.6,4.1-2.4,6.7-2.4,7.9,0,1.6.7,2.4,2,2.4q3,0,9.6-7.8v4.5Z" transform="translate(-186.4 -195.5)"/><path d="M498.8,342.8a10.3,10.3,0,0,1-3.6-1.3,10.5,10.5,0,0,1-4.4-4.9.62.62,0,0,1,.1-.7,13.29,13.29,0,0,1,3.7-3.4,15.4,15.4,0,0,1,7.9-1.9c.5,0,.6.2.6.6a12.22,12.22,0,0,0,.2,3.3,5.79,5.79,0,0,0,2,3.1,5.14,5.14,0,0,0,5.7.5,5.76,5.76,0,0,0,2.8-4.1,13.13,13.13,0,0,0,.1-2.8c0-.5.1-.6.6-.6a16.18,16.18,0,0,1,5.7.9,12.6,12.6,0,0,1,5.9,4.3.76.76,0,0,1,.1.9,11,11,0,0,1-3,3.8,12.59,12.59,0,0,1-4.5,2.2c-.1,0-.3,0-.3.2s.1.2.2.3c.4.3.8.5,1.1.7a.81.81,0,0,1,.4.8v8.2a4.06,4.06,0,0,0,.4,1.9c1.1,2.7,2.3,5.3,3.5,7.9,1.1,2.4,2.3,4.9,3.5,7.3.4.7.7,1.5,1.1,2.2a.64.64,0,0,1,0,.6,8.94,8.94,0,0,1-1.9,3.1,16.5,16.5,0,0,1-4.6,3.2,26.4,26.4,0,0,1-4.5,1.5,37,37,0,0,1-11,1,26,26,0,0,1-5.6-.7,39.43,39.43,0,0,1-4.9-1.4,19.65,19.65,0,0,1-2.5-1.3,10.78,10.78,0,0,1-4.7-5.2,1.1,1.1,0,0,1,0-.8c1.4-2.9,2.8-5.8,4.2-8.8,1.1-2.4,2.2-4.9,3.3-7.3a9.9,9.9,0,0,0,.9-4.2c-.1-2.4,0-4.7,0-7.1a1,1,0,0,1,.4-.8C497.7,343.5,498.3,343.3,498.8,342.8Zm9.4,33.8a42.08,42.08,0,0,0,6.3-.6,18.48,18.48,0,0,0,8.2-3.3,9.18,9.18,0,0,0,2.4-2.8.85.85,0,0,0,0-.7l-4.2-9c-.7-1.6-1.4-3.1-2-4.8-.1-.3-.3-.4-.5-.3a10.76,10.76,0,0,1-3.1.7.68.68,0,0,0-.6.4c-.3.6-.6,1.2-1.4,1.2-.4.1-.4.2-.3.5a31.24,31.24,0,0,1,2.4,7.3c.1.4,0,.5-.4.5a4.67,4.67,0,0,0-1.7.3,8.52,8.52,0,0,0-2.9,1.7c-.1.1-.3.3-.5.2a.75.75,0,0,1-.1-.5,36.69,36.69,0,0,0-.5-6.6,19.82,19.82,0,0,0-.8-3.5c0-.1-.1-.3-.2-.3s-.1.2-.2.3c-.1.4-.3.8-.4,1.1a38.62,38.62,0,0,0-1,8.4c0,.4.2,1-.1,1.1s-.7-.3-1-.6a6.32,6.32,0,0,0-3.9-1.5c-.4,0-.5-.1-.4-.6.3-1.1.6-2.2.9-3.2a29,29,0,0,1,1.6-4.1c.1-.1.2-.3-.1-.4a2.11,2.11,0,0,1-1.6-1.3.66.66,0,0,0-.5-.4,13.72,13.72,0,0,1-3.4-.7c-.2-.1-.3,0-.4.2-1.1,2.9-2.4,5.7-3.7,8.5-.8,1.8-1.7,3.6-2.5,5.3a.85.85,0,0,0,0,.7,8,8,0,0,0,1.5,2.1,14.14,14.14,0,0,0,4.5,2.8,24.92,24.92,0,0,0,6,1.4A19.55,19.55,0,0,0,508.2,376.6Zm-9.8-29h0v2.1a.7.7,0,0,0,.6.8c.8.2,1.7.3,2.5.5a.42.42,0,0,0,.6-.3,6.47,6.47,0,0,1,.8-.9,1.54,1.54,0,0,1,1.6-.2c1,.5,2.1.8,3.1,1.4a1.53,1.53,0,0,0,1.6,0c1-.5,2.1-.9,3.1-1.4a1.23,1.23,0,0,1,1.6.2c.3.3.6.5.7.9a.55.55,0,0,0,.5.3,25.58,25.58,0,0,0,2.7-.5.67.67,0,0,0,.5-.7v-4.2a.94.94,0,0,0-.5-.9,13.52,13.52,0,0,1-2.8-2.5,12.09,12.09,0,0,1-2-3c-.1-.3-.3-.3-.6-.1a8.65,8.65,0,0,1-1,.7,6.57,6.57,0,0,1-7-.6c-.4-.3-.5-.3-.7.2a13.07,13.07,0,0,1-4.9,5.5.75.75,0,0,0-.4.7Zm10.2,32.3a36.08,36.08,0,0,0,7.2-.8,32.38,32.38,0,0,0,5.3-1.6,17.79,17.79,0,0,0,3-1.7,10,10,0,0,0,2-2.1c.4-.6.7-1.2.2-1.8-.1-.1-.1-.2-.2-.2s-.1.1-.2.2a6.9,6.9,0,0,1-1.6,1.8,14.69,14.69,0,0,1-4.8,2.9,22.23,22.23,0,0,1-4.9,1.3,20.85,20.85,0,0,1-3.5.4,34.17,34.17,0,0,1-10.1-.6,22.4,22.4,0,0,1-5-1.6,13,13,0,0,1-5.3-4.3c-.1-.1-.1-.2-.2-.1a1.48,1.48,0,0,0-.2,1.3,7.64,7.64,0,0,0,1.7,2.3,15.85,15.85,0,0,0,4.5,2.7,27.25,27.25,0,0,0,5.6,1.5C504.2,379.7,506.3,379.8,508.6,379.9Zm-7.2-45.1c-.4,0-.7.3-1.1.4a15.16,15.16,0,0,0-4.9,2.5c-.3.2-.6.6-.9.8-.1.1-.2.3,0,.4a12.7,12.7,0,0,0,1.2,1,.48.48,0,0,0,.7-.1,10.86,10.86,0,0,1,2.5-2.3,8.8,8.8,0,0,1,2.8-1.6c.2-.1.4-.2.3-.5C501.7,335.1,501.7,334.8,501.4,334.8Zm14.1,0c-.5,0-.4.3-.5.5a.37.37,0,0,0,.2.5,3.7,3.7,0,0,1,1.1.5,16.12,16.12,0,0,1,4.3,3.5c.2.2.3.2.5.1a14.7,14.7,0,0,0,1.3-1c.2-.1.1-.3,0-.4a9,9,0,0,0-1-.9,16.84,16.84,0,0,0-4.2-2.2C516.6,335.2,516,335,515.5,334.8Zm-.2-2.1c0,.2.1.4.3.4a16.29,16.29,0,0,1,3.1,1.1,10.09,10.09,0,0,1,1.5.7,24.42,24.42,0,0,1,3.3,2.3c.1.1.1.1.2.1.4-.1.6-.9.4-1.2a11.73,11.73,0,0,0-4.5-3.1,12.9,12.9,0,0,0-3.9-.8C515.4,332.3,515.3,332.4,515.3,332.7Zm-14.1-.4a4.33,4.33,0,0,0-.5.1,11.74,11.74,0,0,0-7.7,3.5c-.5.5-.5.7-.1,1.3.2.2.3.2.5,0a10.59,10.59,0,0,1,1.2-1,18.46,18.46,0,0,1,4.4-2.3,14.16,14.16,0,0,1,2.2-.7c.3,0,.3-.3.3-.6A.32.32,0,0,0,501.2,332.3Zm1.8,21.2a5.45,5.45,0,0,0,.5,2.2c.1.3.3.3.6.2.7-.2,1.3-.7,2-.9.2-.1.2-.2.1-.4a2.33,2.33,0,0,1,0-2,.42.42,0,0,0-.3-.6c-.6-.2-1.2-.5-1.8-.7a.45.45,0,0,0-.6.2A8.35,8.35,0,0,0,503,353.5Zm10.7,0a3.94,3.94,0,0,0-.6-2.1c-.1-.1-.2-.3-.4-.2a15.39,15.39,0,0,1-1.9.8.42.42,0,0,0-.3.6,2.33,2.33,0,0,1,0,2c-.1.2-.1.3.1.4.7.3,1.3.7,2.1,1a.42.42,0,0,0,.6-.3A7.8,7.8,0,0,0,513.7,353.5Zm-3.6,3.3a.37.37,0,0,0,.1.3,30.11,30.11,0,0,1,1.3,7.8c0,.3.1.4.4.2a4.87,4.87,0,0,1,1.1-.4c.5-.1.5-.4.4-.8a36.63,36.63,0,0,0-2.1-5.5A4.81,4.81,0,0,0,510.1,356.8Zm-3.4-.1c-.2,0-.2.1-.3.2a14.92,14.92,0,0,0-1.4,2.4,25.06,25.06,0,0,0-1.6,4.6.42.42,0,0,0,.3.6c.3.1.5.2.8.3.9.4.9.4.9-.6a25.18,25.18,0,0,1,.8-5.5C506.3,358.1,506.5,357.5,506.7,356.7Zm-6.6-15.4c.2,0,.4,0,.5-.2a14.15,14.15,0,0,0,1.8-2.9c.1-.3.4-.6.2-.8s-.6,0-.9.1a13.87,13.87,0,0,0-3.9,2.8c-.4.4-.3.5.2.7A15.17,15.17,0,0,0,500.1,341.3Zm16.5,0a15.17,15.17,0,0,0,2.1-.3c.5-.1.6-.3.2-.7a19.34,19.34,0,0,0-2.8-2.2,8,8,0,0,0-1.6-.8c-.2,0-.3-.1-.5.1s0,.3,0,.4a14.22,14.22,0,0,0,2.1,3.3A.55.55,0,0,0,516.6,341.3Zm-15.1,12.2c0-.8,0-.8-.8-1-.4-.1-.9-.1-1.3-.2-.9-.2-.9-.2-.9.8,0,.3.1.5.5.6.6.2,1.2.3,1.8.5S501.5,354.4,501.5,353.5Zm13.8,0c0,.8,0,.9.9.7.5-.1,1.1-.3,1.6-.4.2-.1.5-.1.5-.3a2.44,2.44,0,0,0,0-1.2c0-.1-.2-.1-.3-.1a14.16,14.16,0,0,0-2,.4C515.2,352.9,515.3,352.6,515.3,353.5Zm-6.2.1a.75.75,0,0,0-.7-.7.77.77,0,0,0-.7.8.86.86,0,0,0,.7.8A1,1,0,0,0,509.1,353.6Z" transform="translate(-186.4 -195.5)"/><path d="M247.8,368.6c-6.1,6.6-11.4,9.9-15.8,9.9a8.69,8.69,0,0,1-6.4-3.1q-3-3.15-2.7-10.5c-4.7,9.1-10.1,13.6-16.1,13.6a8.27,8.27,0,0,1-7-3.4c-1.8-2.2-2.6-5.2-2.6-9,0-4.1,1.6-10.8,4.9-20.2,2.8-8,4.2-13.4,4.2-16a6.89,6.89,0,0,0-1.3-4.5,4.22,4.22,0,0,0-3.4-1.7c-2.1,0-4.2,1.3-6.2,3.8a12.6,12.6,0,0,0-3,7.9,7.9,7.9,0,0,0,2.7,6.1c.7.6,1,1.1,1,1.5q0,1.35-1.8,3.3c-1.2,1.3-2.2,1.9-3.2,1.9s-2.2-.8-3.2-2.4a9.55,9.55,0,0,1-1.5-5.2,21.47,21.47,0,0,1,5.6-14.2c3.7-4.3,7.8-6.4,12.2-6.4a10.06,10.06,0,0,1,8.4,4c2.2,2.7,3.2,6.2,3.2,10.5q0,7.65-4.8,21c-2.2,6.2-3.3,10.3-3.3,12.5a5.39,5.39,0,0,0,.9,3.3,3.09,3.09,0,0,0,2.6,1.2c2.1,0,4.1-1.4,5.9-4.2a38.52,38.52,0,0,0,4.5-8.8c1.1-3.1,2.5-7.6,4.1-13.5l3.5-12.6c1-3.3,1.8-6.1,2.5-8.2a19.18,19.18,0,0,1,1.4-3.6,1.44,1.44,0,0,1,1-.6c.5-.1,1.4-.2,2.7-.4l5.8-.6c.8,0,1.2.2,1.1.6l-1.9,6.9q-2.7,9.45-5.7,22.5c-2,8.7-3,14.2-3,16.6a7.83,7.83,0,0,0,1,4.3,3.06,3.06,0,0,0,2.7,1.6,7.1,7.1,0,0,0,4.1-1.7,65.44,65.44,0,0,0,6.8-6.7v4.5Z" transform="translate(-186.4 -195.5)"/><path d="M269.7,370.3l5.2,2.2A37,37,0,0,0,279,374a11.48,11.48,0,0,0,3.1.4c4.5,0,8.1-2.9,10.8-8.8a44.92,44.92,0,0,0,4.1-18.9c0-7.1-1.7-12.8-5.2-17.1a16.54,16.54,0,0,0-13.5-6.5,19.44,19.44,0,0,0-12.5,4.8c-3.9,3.2-5.8,6.6-5.8,10.1a5.42,5.42,0,0,0,3.4,5.5q1.5.75,1.5,1.8c0,.8-1.1,1.6-3.2,2.5a16.74,16.74,0,0,1-3.9,1.4q-2.1,0-3.6-2.4a10,10,0,0,1-1.6-5.3q0-7.65,8.1-14.7t21-6.9c8.2,0,14.8,2.3,19.7,6.8s7.4,10.6,7.4,18.3a33.14,33.14,0,0,1-4.5,16.6A34.28,34.28,0,0,1,292,374.1a31,31,0,0,1-16.3,4.6,29.82,29.82,0,0,1-13.5-3.2c-3.4,2.1-6.3,3.2-8.8,3.2a5.13,5.13,0,0,1-3.5-1.2,3.6,3.6,0,0,1-1.4-3q0-2.85,3-4.8a13.14,13.14,0,0,1,7.4-1.9,17.18,17.18,0,0,1,6,1,10.46,10.46,0,0,0,3.5-5.1,80.86,80.86,0,0,0,1.9-10.4,41.35,41.35,0,0,1,2.9-11.8,19.29,19.29,0,0,1,5.8-7.2,16.45,16.45,0,0,1,7.8-3.3l1.6,2.1a17.26,17.26,0,0,0-3.7,5.2c-.8,1.8-1.6,5.5-2.2,11.3s-1.9,10.1-3.8,13A28.79,28.79,0,0,1,269.7,370.3Z" transform="translate(-186.4 -195.5)"/><path d="M372.4,343.9l-.7,7.1a5.43,5.43,0,0,1-2.7,1.7,57.91,57.91,0,0,1-7.1,2.2c-.6,7.1-3,12.8-7.1,17.1a20.39,20.39,0,0,1-15.4,6.5c-4.3,0-7.7-.9-10.1-2.8s-3.6-3.7-3.6-5.6c0-.9.9-2.1,2.8-3.8s3.3-2.5,4.1-2.5a1.33,1.33,0,0,1,1.3.7,20.39,20.39,0,0,1,.3,3.8,8.54,8.54,0,0,0,1.5,5.1,4.79,4.79,0,0,0,4.2,2c5.4,0,8.9-5.6,10.4-16.9a30,30,0,0,0-8.5,3.5l1.7-5.5a21.94,21.94,0,0,1,7.3-4.3,34.61,34.61,0,0,1,2.2-10.3,23.65,23.65,0,0,1,5.2-7.5c3.2-.4,5.4-.6,6.5-.7a19.37,19.37,0,0,0-1.9,5.2,52.77,52.77,0,0,0-.7,9.2C365.9,346.7,369.3,345.4,372.4,343.9Zm1.8-24.7a17.35,17.35,0,0,1-3,7.9q-2.1,2.4-7.8,2.4l-12.6-.3c-3.7,0-6.7.7-9,2.2a6.8,6.8,0,0,0-3.5,6c0,2.4,1.5,4.3,4.4,5.7,1,.5,1.5.9,1.5,1.3a4.31,4.31,0,0,1-1.6,2.8,12,12,0,0,1-3.8,2.5c-3.6-1-5.5-3.3-5.5-7,0-2.6,1-5.8,3.1-9.7a27.09,27.09,0,0,1,8.2-9.5,19.24,19.24,0,0,1,11.5-3.7c.3,0,2.3.1,5.8.4s5.6.4,6.3.4c2.2,0,3.5-.4,4-1.3h2Z" transform="translate(-186.4 -195.5)"/><path d="M415.2,368.7c-4.3,4.1-7.4,6.8-9.3,8a10.09,10.09,0,0,1-5.3,1.9c-4.3,0-6.3-3.8-6-11.3a38.94,38.94,0,0,1-7.5,8.5,11.28,11.28,0,0,1-7.1,2.7,7.18,7.18,0,0,1-6-3.3,13.11,13.11,0,0,1-2.5-8.2,22.46,22.46,0,0,1,3.3-11.6,27.12,27.12,0,0,1,8.6-8.9c3.5-2.3,6.6-3.4,9.2-3.4a7.29,7.29,0,0,1,7.1,4.6l8.3-4.6h2.3l-3.6,11.8c-1.8,6-2.8,10-2.8,12.3s.8,3.5,2.5,3.5a5.68,5.68,0,0,0,3.5-1.7c1.3-1.1,3-2.8,5.3-5.1Zm-29.6,2.2c2.7,0,5.2-2.3,7.6-6.9s3.6-8.8,3.6-12.7a5.22,5.22,0,0,0-1-3.5,3.51,3.51,0,0,0-2.7-1.3c-2.7,0-5.3,2.3-7.7,6.9s-3.6,8.8-3.6,12.7a5.42,5.42,0,0,0,1.1,3.5A3.51,3.51,0,0,0,385.6,370.9Z" transform="translate(-186.4 -195.5)"/><path d="M427.6,345a55.94,55.94,0,0,1,5.6-1.2c1.9-.3,3-.5,3.4-.5s.4.1.4.3a3.45,3.45,0,0,1-.3,1.3,11.33,11.33,0,0,0-.6,3.6q0,2.1,2.4,5.7a12.48,12.48,0,0,1,2.4,6.8c0,4.1-2,8.1-5.9,11.9s-8,5.7-12.3,5.7a8.9,8.9,0,0,1-5-1.5c-1.5-1-2.3-2-2.3-3.1,0-.6.7-1.9,2.2-3.7s2.6-2.7,3.2-2.7c.9,0,1.6,1.1,2.3,3.3s1.8,3.3,3.5,3.3a6.4,6.4,0,0,0,4.6-2.3,7.31,7.31,0,0,0,2.2-4.9c0-1.7-.9-4-2.7-6.8a31.46,31.46,0,0,1-3.6-7.1,109.15,109.15,0,0,1-11.9,15.5h-.9V365C420.9,358,425.4,351.3,427.6,345Z" transform="translate(-186.4 -195.5)"/><path d="M488.5,368.7c-6.4,6.6-11.6,9.9-15.8,9.9a5.83,5.83,0,0,1-4.5-1.9,6.65,6.65,0,0,1-1.8-4.8c0-3.2,1.2-7.8,3.7-13.7,1.3-3.2,2-5.3,2-6.2,0-1.1-.5-1.7-1.6-1.7s-2.6.7-4.7,2.2a48.91,48.91,0,0,0-6.5,6,101.57,101.57,0,0,0-1.4,17.9l-9,2.1a66.32,66.32,0,0,1-.5-9.2,73.52,73.52,0,0,1,3.3-22.4,103,103,0,0,1,10.4-22c3.5-1.4,6.6-2.6,9.2-3.5a30.91,30.91,0,0,1,4.5-1.4c.7,0,1.3.6,1.8,1.7a10.24,10.24,0,0,1,.7,4.2,22,22,0,0,1-2.6,9.5,96.17,96.17,0,0,1-8.2,12.6,78.92,78.92,0,0,1,7.2-3.9,9.37,9.37,0,0,1,3.6-.8,4,4,0,0,1,3.3,1.5,5.58,5.58,0,0,1,1.3,3.9c0,2.4-1,6.2-2.9,11.3s-2.9,8.3-2.9,9.6a3,3,0,0,0,.5,1.6,1.57,1.57,0,0,0,1.3.7c1.7,0,4.9-2.6,9.5-7.8v4.6Zm-28-16.6c9.6-11.2,14.4-19.4,14.4-24.7,0-1.6-.4-2.4-1.3-2.4-1.5,0-3.6,2.7-6.3,8A75.8,75.8,0,0,0,460.5,352.1Z" transform="translate(-186.4 -195.5)"/><path d="M566,368.7a14.27,14.27,0,0,1-4,2.6,8.81,8.81,0,0,1-3.1.7,9.53,9.53,0,0,1-5.8-2.3c-3.9,5.9-8.3,8.8-13.3,8.8a9.49,9.49,0,0,1-7.6-3.5,14.36,14.36,0,0,1-2.9-9.3,21.61,21.61,0,0,1,6.6-15.8,21.33,21.33,0,0,1,15.6-6.6,12.3,12.3,0,0,1,5,.7,3.6,3.6,0,0,1,2,1.8,8.72,8.72,0,0,1,.4,2.5c0,5-1.4,11.2-4.1,18.6a6.2,6.2,0,0,0,4.3,1.9c1.8,0,4.1-1.6,7-4.7v4.6ZM552.7,346a4.16,4.16,0,0,0-1.7-.2c-3.5,0-6.2,1.8-8.2,5.5a26.71,26.71,0,0,0-3,12.9,12.32,12.32,0,0,0,1.3,6.3,4.12,4.12,0,0,0,3.6,2.3c1.9,0,4-1.8,6.2-5.3a16.41,16.41,0,0,1-3.8-10.3C547.1,352.9,549,349.2,552.7,346Z" transform="translate(-186.4 -195.5)"/><path d="M605.7,368.7c-6.2,6.6-11.6,9.9-16,9.9a5.48,5.48,0,0,1-4.4-1.9,7.65,7.65,0,0,1-1.7-5.1q0-4.35,3.6-13.2c1.3-3.2,1.9-5.2,1.9-6.1s-.3-1.3-1-1.3a2.92,2.92,0,0,0-1.5.6,19.82,19.82,0,0,0-2,1.6c-.7.6-1.4,1.4-2.3,2.3-.7.8-1.5,1.6-2.3,2.6l-2.3,2.6a9.08,9.08,0,0,0-1.9,3.8,54.28,54.28,0,0,0-.8,6.3c-.1,1.4-.1,3.4-.1,5.8l-8.9,2.1c-.3-3.6-.4-6.3-.4-8.1a48.77,48.77,0,0,1,1.5-12.3,74.93,74.93,0,0,1,4.9-13.1l9.9-1.9a99.8,99.8,0,0,0-4.1,13.2,77.37,77.37,0,0,1,10.5-10.2c2.6-1.9,4.9-2.9,6.9-2.9a4.12,4.12,0,0,1,3.4,1.6,5.64,5.64,0,0,1,1.4,3.9c0,2.6-1.2,6.8-3.5,12.8-1.6,4.1-2.4,6.7-2.4,7.9,0,1.6.7,2.4,2,2.4q3,0,9.6-7.8v4.5Z" transform="translate(-186.4 -195.5)"/><path d="M396.5,228.7c-2.2,1.4-2.7,5.7-2.7,10.7V263c0,13.1-12.5,17.3-20.9,17.3-14.1,0-21.5-7.4-21.5-15.7V232.2a3.94,3.94,0,0,0-2.5-4,19.7,19.7,0,0,0-5.6-1.3v-2.7h25v2.7a30.67,30.67,0,0,0-5.8,1c-2,.6-2.5,2.2-2.5,3.9v30.4c0,5.8,2,13.9,14.5,13.9,12.8,0,15.4-8.7,15.4-14.2v-22c0-5.9-1-9.6-2.7-10.8a19.74,19.74,0,0,0-8.2-2.2v-2.7h24.8v2.7C402.5,227,398.2,227.7,396.5,228.7Z" transform="translate(-186.4 -195.5)"/><path d="M539.1,250.8H478.8A1.79,1.79,0,0,1,477,249v-.3a1.79,1.79,0,0,1,1.8-1.8h60.3a1.79,1.79,0,0,1,1.8,1.8v.3A1.94,1.94,0,0,1,539.1,250.8Z" transform="translate(-186.4 -195.5)"/><path d="M530.7,237.6H478.6A1.58,1.58,0,0,1,477,236v-.3a1.58,1.58,0,0,1,1.6-1.6h52.1a1.58,1.58,0,0,1,1.6,1.6v.3A1.72,1.72,0,0,1,530.7,237.6Z" transform="translate(-186.4 -195.5)"/><path d="M530.7,264.2H478.6a1.58,1.58,0,0,1-1.6-1.6v-.3a1.58,1.58,0,0,1,1.6-1.6h52.1a1.58,1.58,0,0,1,1.6,1.6v.3A1.72,1.72,0,0,1,530.7,264.2Z" transform="translate(-186.4 -195.5)"/><path d="M265.7,247.4l60.3.4a1.79,1.79,0,0,1,1.8,1.8v.3a1.79,1.79,0,0,1-1.8,1.8l-60.3-.4a1.79,1.79,0,0,1-1.8-1.8v-.3A1.73,1.73,0,0,1,265.7,247.4Z" transform="translate(-186.4 -195.5)"/><path d="M274,260.6l52.1.3a1.44,1.44,0,0,1,1.5,1.6v.3a1.44,1.44,0,0,1-1.6,1.5l-52.1-.3a1.44,1.44,0,0,1-1.5-1.6v-.3A1.56,1.56,0,0,1,274,260.6Z" transform="translate(-186.4 -195.5)"/><path d="M274.1,234l52.1.3a1.44,1.44,0,0,1,1.5,1.6v.3a1.44,1.44,0,0,1-1.6,1.5l-52.1-.3a1.44,1.44,0,0,1-1.5-1.6v-.3A1.71,1.71,0,0,1,274.1,234Z" transform="translate(-186.4 -195.5)"/><polygon points="166.8 111.2 133.5 111.2 133.5 0 166.8 0 166.8 15.9 149.4 15.9 149.4 95.3 166.8 95.3 166.8 111.2"/><polygon points="301.4 111.2 268 111.2 268 95.3 285.5 95.3 285.5 15.9 268 15.9 268 0 301.4 0 301.4 111.2"/><ellipse cx="321.3" cy="126.8" rx="6.3" ry="4.5"/><path d="M313.1,414.5a4.45,4.45,0,0,1-4.6-3.6,6.28,6.28,0,0,1-1.9.3,8.58,8.58,0,0,1-5.9-2.3,8.34,8.34,0,0,1-2.6-6.3,8.55,8.55,0,0,1,8.6-9,8.37,8.37,0,0,1,8.5,8.7,8.12,8.12,0,0,1-4.3,7.4,3.53,3.53,0,0,0,3.8,3c1.1,0,2.2-1.2,2.8-2l.7.5C317.6,412.3,315.6,414.5,313.1,414.5Zm-6.4-19.7c-3.5,0-5.6,2.9-5.6,7.8a9.46,9.46,0,0,0,1.5,5.8,4.18,4.18,0,0,1,4.1-2.8,4.36,4.36,0,0,1,4,3.2c1.2-1.4,1.6-3.5,1.6-6.2C312.3,398.6,310.8,394.8,306.7,394.8Zm-.9,12a2.84,2.84,0,0,0-2.4,2.2,4.6,4.6,0,0,0,3.4,1.4,8.81,8.81,0,0,0,1.7-.2C308.2,407.7,307.3,406.8,305.8,406.8Z" transform="translate(-186.4 -195.5)"/><path d="M326.1,411l-.2-.2v-1.5h-.1a4.89,4.89,0,0,1-3.9,1.9c-2.3,0-3.2-1.7-3.2-4V402a1.21,1.21,0,0,0-.6-1.2,2.38,2.38,0,0,0-1.2-.3v-.7l4-.3.2.2v7.8c0,1.7.9,2.6,1.9,2.6a3.44,3.44,0,0,0,3-1.7v-6.3a1.31,1.31,0,0,0-.6-1.2,3.66,3.66,0,0,0-1.6-.2V400l4.3-.3.2.2v9a1.43,1.43,0,0,0,.6,1.2,2.17,2.17,0,0,0,1.2.2v.7Z" transform="translate(-186.4 -195.5)"/><path d="M340.3,411.2a2.07,2.07,0,0,1-2.2-1.6H338a5,5,0,0,1-3.7,1.7,2.68,2.68,0,0,1-2.9-2.7,3.15,3.15,0,0,1,2.4-3.3,28.5,28.5,0,0,0,4.2-1.6v-1.1c0-.4-.1-2.5-2.1-2.5a2,2,0,0,0-1.6.6c0,.4.2,1,.2,1.5a1.27,1.27,0,0,1-1.4,1.1A1.16,1.16,0,0,1,332,402c0-1.5,2.2-2.7,4.1-2.7,2.4,0,4.3.4,4.3,3.7,0,2.2-.1,4.8-.1,5.7,0,.3.3,1.2,1.1,1.2.6,0,.9-.9.9-1.8h.8C342.9,410.3,341.9,411.2,340.3,411.2Zm-6.4-3.1c0,1.3.6,1.8,1.7,1.8a3,3,0,0,0,2.5-1.3l.1-4.1C335.7,405.4,333.9,406.1,333.9,408.1Z" transform="translate(-186.4 -195.5)"/><path d="M343.4,410.9v-.8c.4,0,.7-.1,1.1-.1s.7-.5.7-1.1V395.4a2.1,2.1,0,0,0-.7-1.4,4.71,4.71,0,0,0-1.7-.4v-.7l4.5-.3.2.2v16a1.08,1.08,0,0,0,.7,1.1,3.54,3.54,0,0,0,1.1.3v.8h-5.9Z" transform="translate(-186.4 -195.5)"/><path d="M350.6,410.9v-.8c.4,0,.7-.1,1.1-.1s.7-.5.7-1.1V402a1.64,1.64,0,0,0-.7-1.2,3.26,3.26,0,0,0-1.4-.4v-.7l4.2-.3.2.2v9.2a1.08,1.08,0,0,0,.7,1.1c.4.1.6.2,1.1.3v.8h-5.9Zm2.7-14.5a1.5,1.5,0,0,1,0-3,1.56,1.56,0,0,1,1.6,1.5A1.71,1.71,0,0,1,353.3,396.4Z" transform="translate(-186.4 -195.5)"/><path d="M362.3,411.2c-2,0-3-1.2-3-3.4v-7.1H357v-1.1h2.3V396h2.1v3.6h3.3v1.1h-3.3v6.8c0,1.4.4,2.3,1.7,2.3,1.1,0,1.3-.9,1.4-1.9h.8A3,3,0,0,1,362.3,411.2Z" transform="translate(-186.4 -195.5)"/><path d="M375.5,401.7c-.6,1.3-1.7,4.2-2.7,6.5-.7,1.6-1.2,3-1.3,3.2-2.2,5-3.1,5.2-4.6,5.2a1.69,1.69,0,0,1-1.8-1.7,1.43,1.43,0,0,1,1.4-1.4,1.16,1.16,0,0,1,1.3,1.2v.6c1.5-.3,3-4.3,3-4.3-1.7-4.4-2.2-5.4-3.9-9.4a2.3,2.3,0,0,0-1.8-1.2v-.8h5.4v.8c-.6,0-1.3.1-1.3.5a1,1,0,0,0,.2.5c.5,1.3,1.6,4,2.6,6.5h.1c.9-2.2,1.5-3.6,2.4-6,0-.2.1-.5.1-.7,0-.5-1.2-.8-1.6-.9v-.7h4.3v.7A2.67,2.67,0,0,0,375.5,401.7Z" transform="translate(-186.4 -195.5)"/><path d="M392.5,411.2a2.07,2.07,0,0,1-2.2-1.6h-.1a5,5,0,0,1-3.7,1.7,2.68,2.68,0,0,1-2.9-2.7,3.15,3.15,0,0,1,2.4-3.3,28.5,28.5,0,0,0,4.2-1.6v-1.1c0-.4-.1-2.5-2.1-2.5a2,2,0,0,0-1.6.6c0,.4.2,1,.2,1.5a1.27,1.27,0,0,1-1.4,1.1,1.16,1.16,0,0,1-1.1-1.3c0-1.5,2.2-2.7,4.1-2.7,2.4,0,4.3.4,4.3,3.7,0,2.2-.1,4.8-.1,5.7,0,.3.3,1.2,1.1,1.2.6,0,.9-.9.9-1.8h.8C395.1,410.3,394.1,411.2,392.5,411.2Zm-6.4-3.1c0,1.3.6,1.8,1.7,1.8a3,3,0,0,0,2.5-1.3l.1-4.1C387.9,405.4,386.1,406.1,386.1,408.1Z" transform="translate(-186.4 -195.5)"/><path d="M403.1,410.9v-.8c.4,0,.8-.1,1.2-.1s.7-.5.7-1.1v-5.7c0-1.7-1-2.6-2-2.6a3.65,3.65,0,0,0-3.1,1.7v6.4a1.08,1.08,0,0,0,.7,1.1,4.22,4.22,0,0,0,1.2.3v.8H396v-.8c.4,0,.7-.1,1.1-.1s.7-.5.7-1.1V402a1.71,1.71,0,0,0-.7-1.3,2.38,2.38,0,0,0-1.2-.3v-.7l3.9-.3.2.2v1.7h0a5.16,5.16,0,0,1,4-2c2.3,0,3.3,1.6,3.3,3.9v5.7a1.15,1.15,0,0,0,.6,1.1,3.09,3.09,0,0,0,1.1.2v.8h-5.9Z" transform="translate(-186.4 -195.5)"/><path d="M419.2,411l-.2-.2v-1.1h-.1a4.46,4.46,0,0,1-3.3,1.5c-2.9,0-5.3-2.4-5.3-6.1a5.79,5.79,0,0,1,5.6-5.9,8,8,0,0,1,3,.7v-4.5a1.68,1.68,0,0,0-.6-1.4,6.49,6.49,0,0,0-2.2-.5v-.7l4.9-.3.2.2v15.8a1.31,1.31,0,0,0,.6,1.2,3.42,3.42,0,0,0,1.5.2v.7Zm-.2-8.9a2.92,2.92,0,0,0-2.8-2c-1.9,0-3.3,2-3.3,5.3,0,2.4,1,4.6,3.6,4.6a3.11,3.11,0,0,0,2.5-1.3v-6.6Z" transform="translate(-186.4 -195.5)"/><path d="M438.6,411.3c-4.8,0-8.1-3.3-8.1-8.6a8.57,8.57,0,0,1,8.7-8.9,5.88,5.88,0,0,1,3.7,1.3l.7-1.3h1l.1,6.3h-.8c-.9-2.8-2.3-5.4-5.5-5.4-2.5,0-4.9,2.3-4.9,7.8,0,4.3,2.7,7.3,5.9,7.3,3,0,4.2-1.4,5.2-3.5l.8.4C444.3,409,442.3,411.3,438.6,411.3Z" transform="translate(-186.4 -195.5)"/><path d="M452,411.3a5.69,5.69,0,0,1-5.6-6c0-3.6,2.3-6.1,5.7-6.1s5.6,2.5,5.6,5.9S455.7,411.3,452,411.3Zm.1-11.2c-2.6,0-3.2,2.7-3.2,5,0,2.9.9,5.3,3.2,5.3s3.1-2.4,3.1-5.3C455.3,402.6,454.5,400.1,452.1,400.1Z" transform="translate(-186.4 -195.5)"/><path d="M473.9,410.9v-.8c.4,0,.7-.1,1.1-.1s.7-.5.7-1.1v-5.7c0-1.7-.9-2.6-2-2.6a3.44,3.44,0,0,0-3,1.7v6.5a1.15,1.15,0,0,0,.6,1.1,3.09,3.09,0,0,0,1.1.2v.8h-5.7v-.8c.4,0,.7-.1,1-.1.5-.1.7-.5.7-1.1v-5.7c0-1.7-.9-2.6-2-2.6a3.44,3.44,0,0,0-3,1.7v6.4a1.08,1.08,0,0,0,.7,1.1,4.51,4.51,0,0,0,1.1.3v.8h-5.8v-.8c.4,0,.7-.1,1.1-.1s.7-.5.7-1.1V402a1.52,1.52,0,0,0-.7-1.2,4,4,0,0,0-1.3-.4v-.7l4-.3.2.2v1.7h.1c1-.9,1.8-2,4-2a3.43,3.43,0,0,1,3.2,2.1c1-1,2-2.1,4.1-2.1,2.3,0,3.2,1.7,3.2,4v5.6a1.15,1.15,0,0,0,.6,1.1,3.73,3.73,0,0,0,1.2.2v.8h-5.9Z" transform="translate(-186.4 -195.5)"/><path d="M489.4,396c-.6,0-1.4-.3-1.4-1.1,0-.4.1-1,.1-1.4a1.07,1.07,0,0,0-.6-.2c-1.5,0-2.3,1.2-2.4,5v1.3h3.1v1.1h-3.1v8.1a1.08,1.08,0,0,0,.7,1.1c.4.1,1.2.2,1.6.3v.8h-6.2v-.8c.4,0,.7-.1,1.1-.1s.7-.5.7-1.1v-8.2h-2.5v-1.1H483v-.5a6.91,6.91,0,0,1,1.7-5,4.84,4.84,0,0,1,3.6-1.5c1.8,0,2.6,1.1,2.6,2.2C490.7,395.2,490.2,396,489.4,396Z" transform="translate(-186.4 -195.5)"/><path d="M494.5,411.3a5.69,5.69,0,0,1-5.6-6c0-3.6,2.3-6.1,5.7-6.1s5.6,2.5,5.6,5.9S498.2,411.3,494.5,411.3Zm.2-11.2c-2.6,0-3.2,2.7-3.2,5,0,2.9.9,5.3,3.2,5.3s3.1-2.4,3.1-5.3C497.8,402.6,497.1,400.1,494.7,400.1Z" transform="translate(-186.4 -195.5)"/><path d="M509.6,402.6c-.8,0-1.3-.3-1.3-1.2a1.88,1.88,0,0,1,.2-.8,3.25,3.25,0,0,0-2.5,1.7v6.5a1.08,1.08,0,0,0,.7,1.1,7.58,7.58,0,0,0,1.6.3v.8H502v-.8c.4,0,.7-.1,1.1-.1s.7-.5.7-1.1v-6.9a1.71,1.71,0,0,0-.7-1.3,2.38,2.38,0,0,0-1.2-.3v-.7l3.9-.3.2.2v1.7h0a4.3,4.3,0,0,1,3.3-2,1.58,1.58,0,0,1,1.6,1.6A1.47,1.47,0,0,1,509.6,402.6Z" transform="translate(-186.4 -195.5)"/><path d="M516.6,411.2c-2,0-3-1.2-3-3.4v-7.1h-2.3v-1.1h2.3V396h2.1v3.6H519v1.1h-3.3v6.8c0,1.4.4,2.3,1.7,2.3,1.1,0,1.3-.9,1.4-1.9h.8C519.6,409.7,518.6,411.2,516.6,411.2Z" transform="translate(-186.4 -195.5)"/><path d="M432.1,276.3H407.8v-2.6a25.8,25.8,0,0,0,5.9-.7,3.67,3.67,0,0,0,2.5-3.9V230a3.86,3.86,0,0,0-2.5-4,18.23,18.23,0,0,0-5.6-1.2v-2.6h25.5c10.9,0,29.6,5.7,29.6,27.4C463.3,268,447.4,276.3,432.1,276.3Zm-.7-51.2c-1.8,0-5.2.1-6.9.2v41.8c.5,3.9,2.5,6.1,8.6,6.1,14,0,20.3-9.4,20.3-23.7C453.5,235,444.8,225.1,431.4,225.1Z" transform="translate(-186.4 -195.5)"/></g></svg>